<svg xmlns="http://www.w3.org/2000/svg" width="272.325" height="313.389"><path d="M133.236 0c-.57.02-1.227.229-1.586.732L50.977 97.26c-1.342 1.68-1.433 2.056.366 2.073l161.59-.427c2.22-.181 2.23-.07.793-1.951L134.456.428c-.165-.256-.65-.441-1.22-.427zM148.724 8.6l72.746 88.478c.974 1.182 1.212 1.249 2.927.427l38.355-17.562c2.512-1.134 2.164-1.366.487-2.5L148.724 8.6zM114.76 11.83c-.034-.072-.626.37-1.952 1.281L7.195 82.625l33.05 15c1.724.57 2.24.6 3.354-.792l69.697-83.234c.982-1.137 1.496-1.696 1.464-1.769zm33.415 35.245c4.669 0 8.406 1.61 11.159 4.818 2.752 3.191 4.305 7.752 4.695 13.659.39 5.89-.598 10.45-2.927 13.659-2.33 3.191-5.82 4.756-10.488 4.756-4.684 0-8.407-1.565-11.159-4.756-2.752-3.208-4.305-7.768-4.695-13.66-.39-5.906.597-10.467 2.927-13.658 2.329-3.208 5.803-4.817 10.488-4.818zm-30.672.366c4.256 0 7.447.932 9.513 2.805 2.082 1.874 2.825 4.455 2.317 7.805-.294 1.938-1.061 3.744-2.317 5.427-1.254 1.668-3.683 3.958-7.317 6.769l-8.598 6.646h15.61l-.976 6.708H99.881l1.037-6.708 14.695-11.463c1.318-1.048 2.341-2.049 3.05-3.05a7.396 7.396 0 0 0 1.28-3.17c.253-1.667-.065-3.008-1.037-4.025-.957-1.016-2.41-1.524-4.269-1.524-1.429 0-3.024.356-4.817.976-1.79.603-3.733 1.476-5.854 2.683l1.16-7.806a47.098 47.098 0 0 1 6.34-1.524c2.073-.365 4.1-.549 6.037-.549zm31.099 5.915c-1.97 0-3.304.918-4.025 2.744-.722 1.81-.964 4.944-.67 9.39.297 4.495.927 7.61 1.89 9.452.963 1.842 2.421 2.805 4.39 2.805 1.954 0 3.305-.963 4.025-2.805.72-1.842.968-4.957.67-9.451-.293-4.447-.929-7.58-1.89-9.391-.946-1.826-2.421-2.744-4.39-2.744zm-87.686 4.94c.846 0 1.44.21 1.708.67.53.913-.14 2.694-1.952 5.427-1.816 2.743-3.902 5.075-6.28 6.951a25.481 25.481 0 0 1-7.866 4.208c-1.845.602-3.118.76-3.842.427-.73-.338-.898-1.182-.488-2.44-1.374 1.454-2.81 2.715-4.33 3.72-1.519 1.006-3.067 1.787-4.694 2.317-2.422.79-3.88.733-4.269-.183-.388-.915.308-2.67 2.012-5.244 1.692-2.554 3.584-4.721 5.732-6.464a21.364 21.364 0 0 1 6.89-3.78c1.628-.531 2.763-.67 3.416-.366.658.295.81 1.023.487 2.134 1.487-1.608 3.059-2.963 4.757-4.085 1.69-1.128 3.46-2.02 5.305-2.623 1.422-.463 2.569-.668 3.414-.67zm162.75 1.463c1.45 1.214 2.792 2.47 4.024 3.658 1.24 1.188 2.367 2.334 3.353 3.476 2.167 2.51 3.319 4.46 3.415 5.854.105 1.403-.838 2.12-2.805 2.134-1.137 0-2.466-.331-3.963-.915-1.488-.583-3.852-1.778-7.135-3.658l-7.805-4.452 7.988 9.208-3.963.06-13.171-15.244 3.963-.06 13.354 7.622c1.205.68 2.24 1.2 3.11 1.524.87.324 1.622.492 2.256.488.979 0 1.441-.368 1.464-1.036.03-.66-.396-1.527-1.342-2.622-.727-.843-1.698-1.806-2.927-2.805-1.219-1-2.696-2.034-4.39-3.171l4.573-.06zM55.488 63.844a8.184 8.184 0 0 0-1.768.366 14.023 14.023 0 0 0-3.78 1.89c-1.112.784-2.016 1.675-2.684 2.683-.674 1.018-.82 1.713-.426 2.013.393.3 1.334.215 2.744-.244a13.964 13.964 0 0 0 3.78-1.89 10.56 10.56 0 0 0 2.683-2.745c.668-1.008.814-1.656.427-1.95-.2-.145-.523-.165-.976-.122zM42.257 68.48c-.362.027-.832.119-1.402.304-1.14.372-2.141.928-3.049 1.586-.921.662-1.695 1.408-2.256 2.256-.575.867-.73 1.437-.427 1.707.309.262 1.068.186 2.195-.183a10.886 10.886 0 0 0 3.05-1.525c.926-.671 1.68-1.45 2.255-2.317.562-.848.736-1.385.427-1.646-.154-.13-.43-.21-.793-.183zm226.105 15.61c-.329.023-.846.212-1.647.548l-39.391 17.989c-1.399.635-1.31 1.49-.793 2.56l45.794 116.163-3.293-135.309c-.101-1.48-.122-1.99-.67-1.951zM4.207 87.686L0 219.336l38.782-113.905c.573-1.682.559-1.767-.61-2.317L4.207 87.686zm210.86 17.074l-165.249.427c-2.361-.035-2.263-.033-1.097 1.89l83.905 141.529c1.417 2.16 1.265 2.092 2.744-.121l80.612-141.773c.706-1.126 1.21-1.914-.915-1.951zm6.586 3.72c-.152.064-.319.638-.793 1.524l-81.16 142.81c-.886 1.507-1.097 2.047 1.036 1.707l128.845-17.745c2.044-.466 1.981-1.197 1.28-3.232l-48.598-123.479c-.322-1.183-.457-1.65-.61-1.585zM43.477 109.82c-.158.113-.3.715-.61 1.586L1.707 232.569c-.7 2.574-.78 3.54 1.83 4.024L126.65 254.4c2.328.35 2.03-.823 1.463-1.952L44.33 111.102c-.527-1.068-.696-1.394-.853-1.28zm224.03 1.586l.245 5.06-4.147 2.684.976 18.354 4.146-4.086.305 5-4.207 4.025-4.451 2.866-1.22-23.354-1.951 1.22.06 1.463a7.588 7.588 0 0 0-2.683.12 8.256 8.256 0 0 0-2.56 1.098c-1.245.79-2.182 1.715-2.806 2.805a6.309 6.309 0 0 0-.854 3.537c.066 1.294.442 2.03 1.159 2.256.71.244 1.724-.02 3.049-.854l1.89-1.22.244 4.757-1.951 1.22c-1.179.748-2.075 1.623-2.622 2.56-.547.95-.793 1.992-.732 3.172.056 1.09.384 1.772.976 2.012.591.24 1.415.04 2.439-.61.756-.48 1.497-1.133 2.256-1.89a22.4 22.4 0 0 0 2.256-2.622l.244 5.366a31.547 31.547 0 0 1-2.683 2.622c-.9.781-1.805 1.454-2.683 2.012-2.365 1.503-4.133 2.06-5.366 1.585-1.24-.456-1.948-1.894-2.073-4.329-.086-1.662.103-3.213.61-4.634a10.899 10.899 0 0 1 2.378-3.842c-1.253.285-2.23.035-2.927-.793-.705-.81-1.062-2.134-1.159-4.024-.144-2.816.402-5.395 1.707-7.744 1.307-2.337 3.327-4.353 5.976-6.037.935-.594 1.85-1.105 2.805-1.463.195-.076.413-.117.61-.184l.06-.06 12.683-8.05zM7.684 121.285c.622-.04 1.274.162 2.012.61 1.629.986 2.82 2.836 3.537 5.549.045.171.082.372.121.548l.244-3.231 8.78 5.305-.365 4.451-2.866-1.707-1.28 15.976 2.987.61-.305 4.329-3.049-.549-3.049-1.89 1.647-20.367-2.5-1.463c.375 2.336.497 5.026.244 8.11-.337 4.098-1.145 6.952-2.378 8.659-1.24 1.714-2.755 2.016-4.574.914a9.485 9.485 0 0 1-1.646-1.28 14.157 14.157 0 0 1-1.585-1.768l.366-4.574c.49.82 1.012 1.495 1.463 2.012.45.529.894.949 1.341 1.22.963.583 1.754.494 2.379-.244.623-.727 1.02-2.119 1.28-4.146-.414.319-.828.483-1.28.487-.454.02-.955-.119-1.464-.426-1.281-.776-2.205-2.127-2.866-4.086-.667-1.962-.93-4.182-.732-6.585.219-2.658.82-4.537 1.83-5.61.505-.532 1.085-.812 1.707-.854zm.915 4.451c-.228.05-.44.213-.61.488-.346.558-.551 1.537-.67 2.988-.12 1.45-.104 2.644.12 3.537.22.9.65 1.544 1.22 1.89.565.342.996.193 1.341-.366.34-.55.552-1.537.671-2.988.12-1.45.098-2.636-.121-3.536-.226-.893-.593-1.487-1.158-1.83-.286-.173-.566-.234-.793-.183zm96.832 9.025h8.659v6.463h15.793v7.867l-14.269 21.22H105.43v-22.44h-5.061v-6.647h5.06v-6.463zm30 0h24.819v6.342h-8.05v22.988l8.293-1.707v6.22l-8.292 1.707h-8.72v-29.208h-8.05v-6.342zm-21.341 13.11v14.94l10.061-14.94h-10.061zm-61.283 26.891l5.732 7.805-2.683 1.769c.414.093.797.164 1.22.304 3.367 1.136 6.465 3.648 9.268 7.44 3.09 4.18 4.336 8.13 3.72 11.951-.638 3.816-3.115 7.133-7.378 9.94-4.37 2.876-8.766 3.836-13.232 2.805-4.49-1.038-8.44-3.93-11.891-8.598-1.093-1.48-2.086-2.934-2.927-4.452a38.792 38.792 0 0 1-2.195-4.695l4.878-3.232a29.504 29.504 0 0 0 1.708 4.635c.631 1.377 1.345 2.631 2.195 3.78 1.826 2.47 3.823 4.002 5.975 4.635 2.141.64 4.38.378 6.769-.854-1.28-.567-2.436-1.337-3.537-2.256-1.113-.912-2.143-2.047-3.11-3.354-2.43-3.29-3.632-6.46-3.536-9.513.085-3.067 1.4-5.447 3.963-7.134a11.042 11.042 0 0 1 2.195-1.098l-3.963-5.366 6.83-4.512zm155.615 11.281l6.646 5.122 10.61 24.879-5.305 7.866-19.146-14.635-2.623 3.903-5.67-4.33 2.683-3.963-5.55-4.207 4.574-6.708 5.488 4.269 8.293-12.196zM57.38 192.202c-1.033.068-2.133.516-3.293 1.28-1.547 1.019-2.396 2.116-2.622 3.354-.249 1.231.136 2.62 1.22 4.086 1.072 1.45 2.276 2.28 3.597 2.5 1.298.212 2.722-.201 4.268-1.22 1.547-1.018 2.435-2.122 2.683-3.354.227-1.238-.148-2.635-1.219-4.085-1.083-1.465-2.3-2.287-3.598-2.5a4.572 4.572 0 0 0-1.036-.06zm153.663 2.622l-5.244 7.744 12.683 9.756-7.44-17.5zm-199.58 48.843l120.797 68.538c1.564.948 1.93.603 1.707-1.036l-2.56-48.05c-.07-1.551-.28-2.183-1.89-2.44L11.463 243.667zm249.764.12L138.602 260.74c-1.618.239-1.326 1.033-1.342 2.196l2.622 48.904c.135 1.483.092 2.015 1.89 1.097l119.455-69.148zm-76.77 21.099l8.963 9.94 7.013-4.147 1.951 2.195-18.415 10.915-2.988 1.768-18.415 10.915-1.952-2.134 7.013-4.146-7.135-7.806-6.585 4.818-1.951-2.135 6.585-4.756 7.5-4.451 9.025 9.94 3.964-2.379 2.988-1.768 3.963-2.378-7.073-7.806-6.647 4.818-1.89-2.135 6.585-4.817 7.5-4.451zm-80.613 1.463c2.373.108 4.516.928 6.525 2.44 2.231 1.677 3.176 3.487 2.805 5.487s-2.027 4-4.94 5.976a18.834 18.834 0 0 1-5.304 2.5l2.073 1.586-4.695 3.17-4.147-3.11 1.525-1.036c-2.597-.17-4.943-1.02-7.074-2.622-.802-.603-1.53-1.19-2.134-1.83a13.234 13.234 0 0 1-1.585-2.012l3.354-2.256c.355.765.755 1.41 1.22 2.013.47.597 1.019 1.175 1.645 1.646 1.315.988 2.767 1.494 4.269 1.524 1.51.025 3.044-.468 4.695-1.402-.924-.116-1.77-.305-2.561-.61a8.977 8.977 0 0 1-2.195-1.22c-1.75-1.315-2.62-2.789-2.622-4.329.019-1.54.92-2.89 2.683-4.085 1.95-1.323 4.098-1.93 6.463-1.83zm1.037 3.659c-.924.068-1.875.445-2.927 1.159-1.06.718-1.685 1.418-1.829 2.073-.137.65.204 1.249.976 1.83.771.58 1.584.855 2.5.792.923-.07 1.928-.5 2.987-1.22 1.052-.713 1.625-1.357 1.769-2.012.144-.655-.143-1.31-.915-1.89-.772-.58-1.637-.801-2.56-.732z"/></svg>
